<svg width="650" height="430" viewBox="0 0 650 430" fill="none" xmlns="http://www.w3.org/2000/svg">
<path d="M642.131 118.16C643.787 117.792 645.074 116.5 645.81 115.024C646.914 113.179 647.65 111.334 648.202 109.305C648.937 107.091 649.305 104.877 649.673 102.663C649.857 101.556 649.857 100.265 649.673 99.1579C649.489 98.6045 649.305 97.8665 648.937 97.313C648.569 96.944 648.202 96.5751 647.834 96.3906C646.73 94.1767 644.155 92.8852 642.131 91.5938C638.636 89.3799 635.693 86.4281 632.934 83.4762C628.52 78.6794 623.001 72.2223 618.771 67.241C615.46 63.3667 612.333 59.3079 609.573 55.0646C608.286 53.0352 606.998 50.8213 606.078 48.6074C604.975 46.0246 603.871 42.5192 602.951 39.7519C602.216 37.538 601.296 35.1396 600.008 33.1102C598.537 30.7118 596.329 28.4979 594.306 26.4685L588.42 20.9338C585.661 18.3509 582.902 14.8456 580.51 11.8938C578.855 9.86437 577.015 7.83497 574.808 6.35904C572.601 4.88312 570.209 3.77617 567.634 3.2227C561.564 1.74677 554.942 1.74677 548.688 2.48473C545.009 2.85372 541.33 3.77617 537.835 5.06761C533.973 6.54353 530.294 8.57293 526.983 10.9713C524.04 9.3109 520.913 8.01946 517.785 7.2815C515.762 6.91252 513.923 6.72802 511.899 6.91251C510.796 7.09701 509.876 7.2815 508.956 8.01946C508.404 8.38844 507.853 9.1264 507.669 9.86437C507.485 10.9713 507.485 12.0783 507.669 13.0007C508.404 16.506 510.244 19.8269 511.715 23.1477C508.036 26.0996 504.174 29.0514 499.943 31.2653C494.976 33.8482 487.067 36.2466 481.733 38.0915C466.097 43.6262 442.553 53.2197 426.733 58.0165C424.158 58.7544 421.583 59.4924 419.008 59.8614C416.433 60.2304 413.857 60.4149 411.282 60.2304C400.613 59.6769 386.45 57.6475 375.965 57.2785C368.791 56.9095 361.433 56.9095 354.26 57.6475C345.798 58.3855 332.002 60.9683 323.357 62.4443C315.631 63.7357 307.538 64.8426 299.812 65.3961C291.719 65.9496 282.889 66.3186 274.796 66.3186C272.037 66.3186 264.127 66.3186 261.184 66.3186L122.858 62.8132C113.845 62.4443 93.6114 61.7063 84.5982 61.1528C80.9193 60.9683 76.8725 60.9683 73.3776 60.9683C69.5148 61.1528 65.468 61.5218 61.6052 62.2598C51.6722 64.2892 42.2911 69.6394 35.1173 76.6501C29.9669 81.6313 25.5522 87.7195 22.2413 94.1767C18.3784 101.741 15.6193 110.043 14.3317 118.529C13.7798 122.773 13.412 127.201 13.412 131.444C13.412 133.658 13.412 136.61 13.412 138.823C14.1477 159.486 14.1477 187.529 15.6193 207.823C16.539 223.505 18.7463 242.507 16.3551 258.189C15.8032 261.325 15.2514 264.646 14.3317 267.783C13.412 271.288 11.9404 274.609 10.6528 277.93C9.54914 280.697 6.97393 285.863 6.23816 288.63C6.05421 288.999 6.05421 289.552 6.05421 289.921L6.23816 290.106C6.60604 290.29 6.97393 290.106 7.34182 290.106C7.70971 290.106 8.07759 290.106 8.26154 290.29C8.26154 290.659 8.26154 291.213 8.07759 291.582C7.70971 293.611 5.87027 298.224 5.1345 300.253C3.84689 303.943 2.74323 307.817 2.1914 311.507C1.82351 314.828 2.00745 318.333 2.55928 321.654C2.92717 323.314 3.29506 324.975 4.21478 326.635C4.58266 327.189 4.95055 327.927 5.50238 328.296C5.87027 328.48 6.23816 328.296 6.78999 328.111C6.97393 328.111 7.34182 327.927 7.52576 328.111C7.89365 328.665 8.07759 329.403 8.26154 329.956C9.54914 335.306 9.73309 341.394 11.7565 346.56C12.3083 347.667 12.8601 348.959 13.5959 349.881C13.7798 350.065 14.1477 350.434 14.5156 350.619C14.6996 350.25 14.8835 349.881 14.8835 349.512C15.4353 347.114 15.6193 342.87 15.8032 340.287C15.9872 337.889 16.3551 335.306 16.9069 333.092C17.2748 331.247 18.0106 329.587 18.7463 327.927C20.0339 324.975 22.0573 321.654 23.161 318.518C23.8967 316.673 24.2646 314.643 24.2646 312.614C24.4486 306.157 22.977 299.146 22.7931 292.873C22.7931 290.844 22.977 288.63 23.3449 286.601C23.8967 283.464 25.1844 279.406 25.9201 276.269C26.6559 273.317 27.0238 270.365 26.8398 267.229C26.8398 263.355 25.5522 255.237 25.0004 251.547C24.4486 246.382 23.8968 240.662 23.7128 235.497C22.6091 213.542 22.6091 190.481 23.5289 168.526C24.0807 155.059 25.9201 140.853 27.9435 127.57C28.8632 138.823 31.2545 150.077 34.9334 160.778C37.5086 168.527 41.5553 176.829 44.1306 184.393C45.2342 187.714 45.786 191.219 45.97 194.724C46.1539 197.307 46.1539 200.812 46.5218 203.211C46.8897 206.347 47.6255 209.483 48.3613 212.435C49.8328 217.97 52.408 224.058 53.1438 229.593C53.8796 235.128 52.7759 240.662 51.4883 246.197C49.281 255.422 47.0736 265.2 43.3948 274.055C41.3714 278.852 38.0604 284.202 35.3013 288.63C33.2779 291.766 31.6224 295.272 30.5187 298.777C29.4151 302.282 28.8632 306.157 29.4151 309.846C29.7829 312.245 30.7027 316.119 31.2545 318.702C31.8063 320.916 32.1742 323.314 32.5421 325.713C34.0137 338.258 31.9903 350.988 29.0472 362.98L22.7931 387.702C22.2413 389.916 21.6894 392.314 21.8734 394.712C22.0573 396.004 22.4252 397.295 22.977 398.402C23.5289 399.509 24.2646 400.432 25.3683 401.169C25.9201 401.723 26.8398 401.907 27.5756 402.092C28.6793 402.276 29.7829 402.276 30.8866 402.645C32.1742 403.199 32.91 404.306 33.4618 405.413C36.5889 411.132 37.5086 418.881 39.8998 424.969C40.4517 426.26 41.1875 427.736 42.659 428.474C43.3948 428.843 44.3145 428.843 45.0503 428.843C47.4415 428.843 66.5717 428.843 68.4111 428.843C69.1469 428.843 69.8827 428.843 70.6184 428.659C71.3542 428.474 72.09 428.29 72.8258 427.921C73.5615 427.367 74.1134 426.445 74.2973 425.338C74.6652 424.046 74.6652 422.57 74.4813 421.279C74.2973 419.988 74.1134 418.512 73.3776 417.405C72.8258 416.482 72.09 415.56 71.3542 414.822C69.8827 413.346 67.4914 411.87 65.652 410.578C63.6286 409.103 61.4213 407.442 59.5818 405.782C58.1103 404.306 56.6387 402.83 55.5351 400.985C54.2475 398.771 53.1438 396.373 52.408 393.974C51.6722 391.391 51.1204 388.624 50.9365 386.041C50.3846 380.691 50.2007 374.603 50.0167 369.253C50.0167 359.29 50.2007 349.143 52.9598 339.55C55.1672 331.432 59.5818 322.023 63.0768 314.274C65.1001 309.846 67.3075 304.496 69.6987 300.253C71.3542 297.301 73.1937 294.534 75.5849 292.135C78.712 288.63 82.3908 285.678 86.0697 282.911C87.9091 284.756 90.1165 286.785 92.3238 288.077C94.7151 289.737 98.21 291.582 100.601 293.242C102.073 294.165 103.36 295.272 104.096 296.932C104.28 297.486 104.464 298.224 104.648 298.777C105.2 302.098 105.2 306.157 106.12 309.478C106.487 310.953 107.039 312.614 108.143 313.905C108.879 314.643 110.166 315.197 111.086 314.643C111.822 314.274 112.374 313.352 112.558 312.614C113.661 309.662 113.845 306.157 114.765 303.02C114.949 302.282 115.133 301.729 115.685 301.175C115.869 300.806 116.236 300.437 116.788 300.253C117.34 300.068 117.892 299.884 118.444 299.884C119.18 299.884 119.915 299.884 120.651 300.068C122.307 300.253 124.33 300.622 125.985 300.806C127.641 300.991 129.296 300.806 130.952 300.622C132.424 300.437 134.815 300.068 136.286 300.253C136.654 300.253 137.022 300.253 137.206 300.437C137.39 300.437 137.758 300.622 137.942 300.806C138.126 300.991 138.31 301.36 138.494 301.729C138.678 302.282 138.862 302.651 139.045 303.205C139.781 306.341 140.517 310.031 141.805 312.798C142.356 313.721 142.908 314.828 144.012 315.381C144.38 315.566 144.932 315.566 145.3 315.381C146.219 315.012 146.587 314.274 146.955 313.352C148.427 310.031 148.611 305.972 149.53 302.651C149.898 301.729 150.082 300.806 150.634 299.884C151.002 299.331 151.554 298.777 152.289 298.408C152.657 298.224 153.025 298.039 153.209 297.855C154.681 297.117 156.888 296.01 158.36 295.272C165.349 291.582 171.42 286.232 176.938 280.697C178.777 278.852 180.801 276.823 182.456 274.793C183.56 273.686 184.664 271.841 185.767 270.734C186.687 269.812 187.607 269.074 189.078 268.705C189.998 268.521 190.918 268.521 192.021 268.705C193.677 268.89 195.148 269.259 196.804 269.812C206.737 272.948 217.222 278.299 227.154 281.25C231.201 282.542 235.432 283.464 239.663 283.464C245.733 283.649 251.619 281.804 257.321 279.59C263.575 279.59 270.013 279.037 276.267 277.93C286.752 276.269 305.698 271.288 316.183 268.705C324.461 266.86 332.922 264.831 341.384 264.462C345.798 264.277 350.213 264.462 354.444 265.015C361.249 265.753 369.895 267.967 376.701 269.259C375.965 279.406 374.493 290.106 375.413 300.253C375.597 302.282 375.965 304.312 376.333 306.157C376.701 308.371 378.172 313.536 378.724 315.75C379.092 317.411 379.644 319.256 379.828 321.1C380.012 322.761 380.012 324.421 380.196 325.897C380.196 329.034 380.012 332.539 380.564 335.675C380.931 337.889 381.851 340.841 382.219 343.055C382.587 345.453 382.955 347.852 383.139 350.25C383.691 363.718 382.587 377.37 380.38 390.653C379.644 394.897 378.356 401.169 377.436 405.413C377.253 406.151 377.253 406.704 377.253 407.442C377.253 408.549 377.436 409.841 377.988 410.763C378.356 411.316 378.724 411.685 379.092 412.054C379.46 412.423 379.828 412.977 380.38 413.161C381.115 413.53 381.851 413.715 382.771 413.715C384.426 413.715 386.266 412.977 387.921 412.608C388.289 412.608 388.473 412.423 388.841 412.423C389.209 412.423 389.393 412.423 389.761 412.608C390.129 412.792 390.313 412.977 390.68 413.346C391.416 414.268 391.6 415.56 392.152 416.667C393.256 419.619 394.175 423.493 395.831 426.26C396.199 426.814 396.567 427.552 397.118 428.105C397.486 428.474 397.854 428.659 398.406 428.843C399.142 429.028 399.878 429.212 400.613 429.212H424.71C424.894 429.212 425.078 429.212 425.262 429.212C425.63 429.212 425.814 429.212 426.182 429.028C426.549 428.843 426.733 428.474 426.917 428.105C427.285 427.183 427.469 426.076 427.653 425.153C427.837 423.493 427.837 421.648 427.653 419.988C427.469 419.065 427.285 418.143 426.733 417.22C426.182 416.113 425.446 415.191 424.71 414.453C422.135 411.87 419.008 409.472 415.881 407.442C414.225 406.335 411.466 404.675 409.995 403.568C408.707 402.645 407.603 401.538 406.867 400.247C406.132 398.956 405.764 397.664 405.396 396.373C404.108 391.022 403.556 385.119 403.189 379.769C402.453 370.175 402.085 360.397 402.637 350.803C403.005 345.638 403.373 340.287 404.844 335.306C405.58 332.723 406.867 329.772 407.603 327.373C408.523 324.975 409.075 322.392 409.627 319.809C410.73 313.905 412.018 303.758 413.305 298.039C414.961 290.475 416.984 282.542 419.927 275.347C423.974 275.162 428.205 274.793 432.068 273.317C434.827 272.21 437.402 270.365 439.609 268.152C442.185 265.569 445.128 260.956 447.335 257.82C448.439 256.16 449.726 254.499 451.198 252.839C452.485 251.363 454.877 249.149 456.164 247.858C458.74 245.275 461.131 242.507 462.97 239.371C466.097 234.021 468.121 228.117 470.144 222.213C471.8 217.048 476.03 203.211 478.054 198.23C478.605 196.754 479.341 195.278 479.893 193.986C481.549 190.665 484.492 187.714 486.883 184.946C489.458 181.81 492.401 177.936 494.976 174.615C499.575 168.342 523.488 135.687 527.351 129.968C530.294 125.54 533.237 120.928 535.628 116.131C540.227 117.238 545.009 117.792 549.608 118.16C555.126 118.529 563.955 118.345 569.658 118.345C573.153 118.345 577.015 118.529 580.51 118.714C590.443 119.636 600.744 122.035 610.309 124.802C613.252 125.54 616.195 126.278 619.138 125.725C621.898 125.171 624.473 123.695 626.68 121.85C629.439 122.035 632.198 122.035 634.958 121.297C636.245 121.112 637.349 120.743 638.452 120.005C640.476 119.636 641.396 119.083 642.131 118.16Z" stroke="#F1F6FF" stroke-width="3" stroke-miterlimit="10" stroke-linecap="round" stroke-linejoin="round"/>
<path d="M217.259 65.1466C219.466 69.9433 222.225 75.1091 227.376 77.5075C230.503 78.7989 233.998 78.9834 237.493 78.7989C241.907 78.6144 247.426 78.2454 251.84 78.9834C254.599 79.3524 257.359 80.2748 259.934 81.5663C266.372 84.8871 271.522 90.4218 274.465 97.0635C275.569 99.4619 276.305 102.045 276.305 104.628C276.489 106.288 276.305 108.133 275.569 109.609C274.465 112.376 272.258 114.59 269.499 115.882C268.027 116.62 266.188 116.989 264.532 117.173C262.141 117.542 259.382 117.726 256.991 118.649C255.703 119.202 254.599 119.756 253.496 120.678C252.208 121.97 251.104 123.446 250.185 124.922C248.897 127.32 247.977 129.903 247.242 132.67C246.69 134.884 246.322 137.283 246.322 139.681C246.322 141.341 246.506 143.002 246.874 144.478C247.426 147.061 249.081 149.459 250.369 151.857C251.288 153.333 252.024 154.994 252.208 156.839C252.392 157.761 252.392 158.683 252.208 159.79C252.024 162.373 251.288 165.879 250.737 168.461C250.185 171.967 249.449 175.841 251.104 179.162C252.024 181.007 253.496 182.483 255.335 183.405C256.991 184.328 258.83 184.512 260.669 184.512C262.509 184.328 264.164 183.59 265.82 182.852C268.947 181.376 272.074 178.977 275.201 177.686C276.121 177.317 277.224 177.133 278.144 177.502C278.696 177.686 279.248 178.055 279.616 178.608C280.168 179.531 280.535 180.638 280.719 181.56C280.903 183.221 280.535 184.881 279.8 186.357C279.064 187.649 278.144 188.755 277.224 189.862C275.753 191.523 273.913 192.814 272.074 194.106C266.004 198.533 259.014 203.146 254.048 209.049C252.76 210.71 251.472 212.555 250.92 214.769C250.737 215.876 250.737 216.983 251.104 217.905C251.472 219.012 252.024 219.934 252.76 220.672C254.048 221.964 255.519 222.702 257.175 223.255C259.75 224.178 262.693 224.362 265.452 223.809C267.108 223.44 268.579 223.071 269.867 222.148C272.258 220.857 274.097 219.012 275.937 216.983C278.696 213.846 281.455 209.603 284.03 206.282C285.87 203.884 288.445 201.485 290.1 199.087C291.02 197.796 291.756 196.32 292.308 194.844C294.331 189.309 295.435 183.036 298.562 178.055C299.114 177.133 300.033 176.21 300.769 175.472C301.873 174.55 303.16 173.812 304.632 173.627C305.368 173.443 306.104 173.443 306.839 173.812C307.391 173.996 307.943 174.55 308.127 175.103C308.311 175.657 308.495 176.21 308.495 176.764C308.495 177.502 308.495 178.239 308.311 178.793C307.943 180.822 307.207 183.59 306.839 185.619C306.471 187.464 305.92 189.493 306.104 191.523C306.104 192.445 306.288 193.368 306.655 194.106C307.575 195.766 309.415 196.873 311.07 197.611C312.909 198.533 315.117 199.456 316.772 200.563C319.164 202.408 320.267 205.729 321.371 208.311C322.107 209.972 323.026 211.817 324.682 212.924C325.786 213.662 327.073 213.846 328.361 213.846C330.2 213.846 332.04 213.293 333.695 212.37C337.19 210.525 339.397 207.02 340.317 203.33C341.237 200.009 341.237 196.32 339.765 193.183C338.846 190.969 337.374 188.94 336.454 186.542C336.086 185.435 335.902 184.143 336.27 182.852C336.638 181.56 337.19 180.453 337.742 179.162C339.397 176.21 341.973 172.889 343.628 169.937C344.364 168.646 344.916 167.17 345.1 165.694C345.468 162.004 343.076 158.868 341.421 155.732C340.685 154.256 339.765 152.595 339.581 150.935C338.846 145.585 342.524 140.603 344.916 136.176C346.387 133.593 347.675 130.825 348.227 127.873C348.779 125.291 348.962 122.708 348.962 119.94C348.962 116.989 348.595 114.037 347.859 111.085C347.123 108.133 345.835 104.997 343.996 102.598C340.869 98.7239 336.086 96.3255 331.856 93.5582C330.568 92.6357 329.097 91.7133 327.809 90.6063C326.521 89.4994 325.418 88.2079 324.314 86.9165C322.107 84.1491 320.451 80.8283 319.348 77.5075C317.876 73.0797 317.14 68.2829 317.324 63.4862" stroke="#F1F6FF" stroke-width="1.5" stroke-miterlimit="10" stroke-linecap="round" stroke-linejoin="round"/>
<path d="M14.001 169.199C14.5528 171.044 15.4725 172.889 16.5762 174.55C17.312 175.472 18.0477 176.21 19.1514 176.579C19.8872 176.764 20.6229 176.764 21.3587 176.579C22.6463 176.21 23.9339 175.288 25.0376 174.55" stroke="#F1F6FF" stroke-width="1.5" stroke-miterlimit="10" stroke-linecap="round" stroke-linejoin="round"/>
<path d="M46.0068 185.988C48.3981 183.774 51.1573 181.376 54.2843 180.269C55.7559 179.9 57.2274 179.715 58.699 179.715C61.6421 179.715 64.7691 179.9 67.5282 178.977C69.9195 178.239 71.7589 176.395 73.2305 174.55C76.1736 170.675 78.013 165.879 79.1167 161.266C79.6685 158.868 80.2204 155.363 80.9561 152.78C81.324 151.673 81.6919 150.381 82.4277 149.274C84.2671 146.138 88.4978 145.769 91.8088 146.507C94.0161 146.876 96.0395 147.798 98.0629 148.721C100.454 149.828 103.029 151.488 105.605 152.042C106.708 152.226 107.812 152.411 108.916 152.226C110.387 152.042 111.859 151.304 112.962 150.381C114.618 149.09 115.905 147.245 116.641 145.216C117.009 143.74 117.193 142.264 117.193 140.603C116.825 134.146 113.698 127.32 113.882 120.678C113.882 118.28 114.434 115.882 115.354 113.483C116.641 109.978 119.032 106.473 120.136 102.967C120.504 101.676 120.872 100.2 120.688 98.7239C120.504 97.617 120.136 96.3255 119.4 95.4031C117.561 92.6357 114.434 90.0528 111.859 87.6545C110.203 85.994 108.364 84.3336 107.26 82.1197C105.972 79.7214 105.605 76.7695 104.501 74.1866C103.581 72.1572 102.478 70.3123 101.19 68.4674C99.3505 65.8846 97.3271 63.4862 95.1198 61.2723" stroke="#F1F6FF" stroke-width="1.5" stroke-miterlimit="10" stroke-linecap="round" stroke-linejoin="round"/>
<path d="M380.969 57.5825C379.313 59.4274 377.842 61.4568 376.738 63.6707C376.002 65.1466 375.45 66.807 375.266 68.6519C375.083 71.2348 375.818 73.8177 376.186 76.4005C376.37 78.0609 376.37 79.7214 375.634 81.1973C375.083 82.6732 374.163 83.7802 373.243 85.0716C371.22 87.6545 368.644 90.2373 367.541 93.5582C366.437 97.0635 367.541 101.122 369.932 103.89C371.772 105.919 374.347 107.026 376.922 107.764C380.969 109.055 385.751 110.162 388.878 113.299C391.453 115.882 393.293 119.387 394.029 122.892C394.581 125.844 394.581 129.165 393.109 131.932C391.821 134.146 389.614 135.438 387.591 136.729L383.912 138.758C381.521 140.234 379.129 141.71 377.474 144.109C376.002 146.138 375.083 148.536 374.715 150.935C374.163 153.702 374.347 156.47 374.899 159.052C375.266 160.713 376.186 162.373 377.106 163.849C378.945 166.432 381.704 168.646 383.544 171.413C384.28 172.336 384.832 173.443 385.199 174.55C385.567 175.657 385.751 176.948 385.935 178.055C386.303 181.929 385.567 185.804 384.832 189.493C382.808 197.98 379.313 206.467 375.818 214.215C375.083 216.245 374.163 218.274 374.163 220.303C373.979 222.886 374.715 225.469 375.818 227.683C376.922 229.897 378.393 231.926 380.601 233.033C382.072 233.771 384.096 234.14 385.751 234.509C386.855 234.694 387.959 235.063 388.878 235.801C389.43 236.17 389.798 236.723 390.166 237.277C390.902 238.383 391.821 240.597 392.373 241.889C393.109 243.365 393.845 244.841 394.948 245.948C395.684 246.686 396.788 247.239 397.708 247.608C399.363 248.162 401.203 248.162 403.042 247.793C404.881 247.424 406.537 246.686 408.008 245.394C409.48 243.918 410.4 241.889 410.768 239.859C411.871 235.063 411.687 229.343 413.711 224.731C414.814 222.333 416.286 220.303 417.941 218.458C419.965 216.06 422.54 213.477 424.195 210.71C424.931 209.603 425.299 208.311 425.667 207.02C426.219 204.806 426.587 202.223 427.323 200.194C427.69 198.902 428.426 197.795 429.53 196.873C430.45 196.135 431.553 195.951 432.657 195.766C434.128 195.582 435.784 195.951 437.255 196.689C438.359 197.242 439.279 198.164 439.831 199.271C440.199 200.194 440.383 201.116 440.566 202.223C440.75 205.544 439.647 208.865 438.727 212.001C437.439 216.06 435.232 222.148 434.864 226.392C434.864 227.499 434.68 228.605 435.048 229.712C435.232 230.45 435.784 231.004 436.336 231.557C437.072 232.111 437.807 232.48 438.727 232.664C440.383 233.033 442.222 232.849 443.877 232.48C446.453 231.926 448.844 230.819 450.867 229.159C453.626 226.945 455.466 223.993 456.937 220.857C458.961 216.429 460.064 211.817 461.168 207.02C462.824 198.902 464.479 188.202 466.319 180.269C467.238 176.026 468.526 171.967 470.181 167.908C471.837 164.403 473.86 160.713 477.171 158.499C478.827 157.392 480.666 156.839 482.506 156.47C484.713 155.916 487.656 155.363 489.863 154.44C491.335 153.887 492.623 153.149 493.726 152.042C496.117 150.012 497.957 147.245 499.428 144.478C501.82 140.05 503.475 135.069 504.579 130.272C505.499 126.398 505.866 122.339 505.499 118.464C505.315 115.513 504.763 112.376 504.763 109.424C504.763 107.579 505.131 105.735 505.866 103.89C506.602 101.86 507.706 99.8309 509.177 98.3549C510.097 97.248 511.385 96.3255 512.856 95.7721C515.248 94.8496 517.823 95.0341 520.398 95.5876C526.652 97.0635 532.906 100.384 539.16 101.86C541.368 102.414 543.575 102.783 545.782 102.598C547.438 102.598 549.093 102.045 550.381 101.307C552.22 100.2 554.06 98.5394 555.899 97.4325C557.003 96.6945 558.29 96.3255 559.578 96.141C560.682 95.9566 561.601 95.9566 562.705 96.141C564.545 96.3255 567.12 96.879 569.143 97.248C570.431 97.4325 571.902 97.617 573.19 97.617C573.926 97.617 574.845 97.4325 575.581 97.248C576.317 96.879 577.053 96.3255 577.604 95.5876C579.076 93.9271 579.996 91.1598 581.099 89.1304C581.835 87.6545 582.571 86.1785 583.859 84.8871C585.146 83.5957 586.618 82.6732 588.089 81.9352C590.848 80.4593 594.343 79.1679 595.631 76.216C596.183 74.9246 596.551 73.4487 596.367 71.9727C596.367 70.3123 595.999 68.8364 595.263 67.3605C594.711 66.2535 594.159 65.3311 593.24 64.5931C592.136 63.4862 590.848 62.7482 589.377 62.0102C586.618 60.7188 583.491 59.6119 581.835 57.029C580.18 54.6306 579.26 51.3098 577.972 48.5424C577.237 46.882 576.317 45.4061 575.029 44.2991C572.086 41.1628 567.672 39.1334 564.545 36.1815C563.625 35.2591 562.705 34.1521 562.153 33.0452C560.682 29.9088 560.682 26.0345 559.946 22.7137C559.578 21.2378 559.21 19.9463 558.474 18.6549C557.555 16.81 556.267 15.1496 554.795 13.8581C552.772 11.8287 550.381 10.1683 547.99 8.69238C545.414 7.21645 542.655 5.92502 539.896 5.00256" stroke="#F1F6FF" stroke-width="1.5" stroke-miterlimit="10" stroke-linecap="round" stroke-linejoin="round"/>
<path d="M641.985 118.28C641.249 119.018 640.329 119.756 639.226 120.309C638.122 120.863 636.834 121.232 635.731 121.601C632.971 122.154 630.212 122.154 627.453 122.154" stroke="#F1F6FF" stroke-width="2.25" stroke-miterlimit="10" stroke-linecap="round" stroke-linejoin="round"/>
<path d="M527.02 11.2753C530.514 8.87688 534.193 6.66299 538.24 5.18706C541.919 3.89562 545.782 2.97317 549.645 2.60419C555.715 2.05072 561.969 2.05072 567.855 3.52664C570.43 4.26461 573.005 5.18706 575.397 6.84748C577.42 8.32341 579.26 10.3528 580.731 12.1977C581.835 13.6736 584.226 16.6255 585.514 18.1014C586.433 19.2084 587.537 20.3153 588.641 21.4223L594.527 26.957C596.55 28.9864 598.574 31.2003 600.229 33.5987C601.517 35.6281 602.436 37.8419 603.172 40.2403C604.092 43.0077 605.012 46.513 606.299 49.0959C607.219 51.3098 608.507 53.5237 609.794 55.5531C612.553 59.7964 615.864 63.8552 618.991 67.7295C623.222 72.7107 628.74 79.1679 633.155 83.9647C635.914 86.9165 639.041 89.8684 642.352 92.0823C644.376 93.3737 646.951 94.6651 648.054 96.879" stroke="#F1F6FF" stroke-width="2.25" stroke-miterlimit="10" stroke-linecap="round" stroke-linejoin="round"/>
<path d="M628.189 104.259C628.557 103.152 628.925 101.86 629.661 100.938C630.029 100.384 630.581 99.8308 631.317 99.6464C632.236 99.2774 633.34 99.2774 634.444 99.2774C635.915 99.4619 637.387 99.6464 638.674 100.384C639.41 100.753 639.962 101.122 640.33 101.676C640.514 102.045 640.698 102.414 640.698 102.967C640.698 103.89 640.33 104.812 640.146 105.55V105.735" stroke="#F1F6FF" stroke-width="2.25" stroke-miterlimit="10" stroke-linecap="round" stroke-linejoin="round"/>
<path d="M633.155 117.542C632.787 117.542 630.212 117.173 629.844 117.173C628.005 116.989 626.349 116.62 624.878 115.513C623.958 114.775 623.038 113.852 622.486 112.745C621.567 111.085 621.015 109.055 621.015 107.026C620.831 104.812 621.199 102.598 622.118 100.569C622.67 99.2774 623.406 97.8015 624.51 96.879C626.533 95.2186 629.292 95.4031 631.867 95.5876C633.707 95.7721 636.282 96.3255 638.122 96.3255C639.777 96.3255 642.536 96.3255 644.192 96.141C645.111 96.141 646.031 96.141 646.951 96.3255C647.503 96.3255 647.87 96.51 648.422 96.879C648.974 97.248 649.342 97.986 649.71 98.5394C649.894 99.2774 649.894 99.8309 649.894 100.569C649.894 101.676 649.71 102.783 649.71 103.89C649.158 107.395 648.238 110.9 646.583 114.221C645.847 115.697 644.927 116.989 643.456 117.726C642.72 118.095 641.8 118.28 640.881 118.464C638.305 118.649 635.546 117.911 633.155 117.542Z" stroke="#F1F6FF" stroke-width="2.25" stroke-miterlimit="10" stroke-linecap="round" stroke-linejoin="round"/>
<path d="M51.3418 81.7508C45.8235 87.47 40.4892 93.5582 36.4424 100.384C33.3154 105.55 31.108 111.085 30.0044 116.989C29.0847 121.785 29.2686 126.582 29.8204 131.379C30.5562 137.651 31.6599 144.293 33.1314 150.381C34.419 155.363 35.8906 160.528 37.73 165.325C39.5695 170.491 42.8804 177.87 44.9038 183.036C45.6396 185.066 46.3754 187.28 46.9272 189.309C47.2951 191.338 47.663 193.552 47.663 195.766C47.8469 198.349 47.8469 201.854 48.2148 204.253C48.5827 207.389 49.3185 210.525 50.0542 213.477C51.5258 219.012 54.101 225.1 54.8368 230.635C55.5726 236.17 54.4689 241.704 53.1813 247.239C50.974 256.464 48.7666 266.242 45.0878 275.097C43.0644 279.894 39.7534 285.244 36.9942 289.672C34.9709 292.808 33.3154 296.314 32.2117 299.819C31.108 303.324 30.5562 307.199 31.108 310.888C31.4759 313.287 32.3957 317.161 32.9475 319.744C33.4993 321.958 33.8672 324.356 34.2351 326.755C35.7066 339.3 33.6833 352.03 30.7402 364.022L24.4861 388.744C23.9342 390.957 23.3824 393.356 23.5664 395.754C23.7503 397.046 24.1182 398.337 24.67 399.444C25.2218 400.551 25.9576 401.473 27.0613 402.211C27.6131 402.58 28.3489 402.949 29.0847 403.134C30.1883 403.318 31.292 403.318 32.3956 403.687C33.4993 404.241 34.2351 405.163 34.9709 406.27C38.0979 411.989 39.2016 419.922 41.5928 426.011C42.1447 427.302 42.8804 428.778 44.352 429.516C45.0878 429.885 46.0075 429.885 46.7433 429.885C50.6061 429.885 68.2647 430.069 71.7596 429.701C72.4954 429.701 73.2311 429.516 73.9669 429.147C74.7027 428.778 75.2545 428.225 75.6224 427.487C76.1742 426.38 76.3582 424.904 76.3582 423.797C76.3582 421.952 75.9903 420.107 75.2545 418.447C74.5188 416.971 73.4151 415.864 72.3114 414.941C71.0238 413.834 68.4486 412.174 66.9771 411.251C64.2179 409.222 61.4587 407.193 59.2514 404.61C57.9638 402.949 56.8602 401.104 55.9404 399.26C55.2047 397.599 54.4689 395.754 54.101 393.909C53.5492 392.064 53.3652 390.035 52.9973 388.19C52.0776 379.888 51.8937 371.217 52.0776 363.099C52.2616 356.827 52.6295 350.554 53.9171 344.281C55.3886 337.824 57.9638 331.551 60.3551 325.463C62.3785 320.851 66.0573 312.364 68.0807 307.752C69.7362 304.247 71.5757 300.741 73.783 297.421C76.91 292.808 81.1407 288.934 85.5554 285.613C93.0971 279.894 101.926 273.99 108.732 267.533C118.665 258.493 126.391 247.239 133.197 235.616C138.347 226.576 143.13 217.352 146.625 207.574C150.487 196.873 152.879 185.619 154.35 174.365" stroke="#F1F6FF" stroke-width="2.25" stroke-miterlimit="10" stroke-linecap="round" stroke-linejoin="round"/>
<path d="M87.9463 283.768C89.7857 285.613 91.9931 287.643 94.2004 288.934C96.5916 290.594 100.087 292.439 102.478 294.1C103.949 295.022 105.237 296.129 105.973 297.79C106.157 298.343 106.341 299.081 106.525 299.634C107.076 302.955 107.076 307.014 107.996 310.335C108.364 311.811 108.916 313.471 110.02 314.763C110.755 315.501 112.043 316.054 112.963 315.501C113.698 315.132 114.25 314.209 114.434 313.471C115.538 310.519 115.722 307.014 116.642 303.878C116.825 303.14 117.009 302.586 117.561 302.033C117.745 301.664 118.113 301.295 118.665 301.11C119.217 300.926 119.769 300.741 120.32 300.741C121.056 300.741 121.792 300.741 122.528 300.926C124.183 301.11 126.207 301.479 127.862 301.664C129.518 301.848 131.173 301.664 132.829 301.479C134.3 301.295 136.691 300.926 138.163 301.11C138.531 301.11 138.899 301.11 139.083 301.295C139.267 301.295 139.634 301.479 139.818 301.664C140.002 301.848 140.186 302.217 140.37 302.586C140.554 303.14 140.738 303.509 140.922 304.062C141.658 307.199 142.394 310.888 143.681 313.656C144.233 314.578 144.785 315.685 145.889 316.239C146.256 316.423 146.808 316.423 147.176 316.239C148.096 315.87 148.464 315.132 148.832 314.209C150.303 310.888 150.487 306.83 151.407 303.509C151.775 302.586 151.959 301.664 152.511 300.741C152.878 300.188 153.43 299.634 154.166 299.265C154.534 299.081 154.902 298.896 155.086 298.712C156.557 297.974 158.765 296.867 160.236 296.129C167.226 292.439 173.296 287.089 178.814 281.554C180.654 279.709 182.677 277.68 184.333 275.651C185.436 274.544 186.54 272.699 187.644 271.592C188.563 270.669 189.483 269.931 190.955 269.562C191.874 269.378 192.794 269.378 193.898 269.562C195.553 269.747 197.025 270.116 198.68 270.669C208.613 273.806 219.098 279.156 229.031 282.108C233.078 283.399 237.309 284.322 241.539 284.322C247.609 284.506 253.496 282.661 259.198 280.447" stroke="#F1F6FF" stroke-width="2.25" stroke-miterlimit="10" stroke-linecap="round" stroke-linejoin="round"/>
<path d="M39.0176 416.417C48.7666 416.602 58.6995 415.126 67.7128 411.436" stroke="#F1F6FF" stroke-width="2.25" stroke-miterlimit="10" stroke-linecap="round" stroke-linejoin="round"/>
<path d="M511.568 100.753C513.04 102.598 514.328 104.628 515.983 106.473C517.271 107.764 518.558 108.871 520.03 109.978C522.789 111.823 526.1 113.299 529.227 114.406C534.193 116.066 539.528 117.173 544.678 117.911C555.899 119.571 568.223 118.095 579.444 118.833C590.112 119.571 600.781 122.154 611.082 125.106C614.025 125.844 616.968 126.582 619.911 126.029C622.67 125.475 625.246 123.999 627.453 122.154" stroke="#F1F6FF" stroke-width="2.25" stroke-miterlimit="10" stroke-linecap="round" stroke-linejoin="round"/>
<path d="M368.093 206.282C366.989 215.322 366.254 224.731 367.173 233.771C367.541 238.015 368.277 242.073 369.933 246.132C370.852 248.346 371.956 250.56 373.428 252.405C374.531 253.881 375.819 255.726 376.922 257.386C377.658 258.493 378.21 259.784 378.578 261.076C379.13 263.474 378.946 266.242 378.946 268.64C378.21 278.787 376.739 289.856 377.658 300.003C377.842 302.033 378.026 304.062 378.394 306.092C378.946 308.859 380.233 313.656 380.969 316.239C381.337 317.899 381.889 319.744 382.073 321.589C382.257 323.249 382.257 324.91 382.441 326.386C382.441 329.706 382.257 333.396 382.993 336.533C383.728 339.669 384.648 342.99 385.016 346.311C385.568 350.738 385.568 355.166 385.568 359.594C385.384 371.77 384.096 384.131 381.705 396.123C381.337 398.522 379.866 404.425 379.682 406.639C379.682 407.377 379.498 408.115 379.498 408.669C379.498 409.407 379.682 410.329 380.233 411.067C380.417 411.62 380.785 411.989 381.153 412.358C381.521 412.727 381.889 413.096 382.257 413.465C382.625 413.834 383.177 414.019 383.544 414.203C384.096 414.388 384.648 414.388 385.2 414.203C386.671 414.019 388.511 413.465 389.982 413.096C390.166 413.096 390.534 412.912 390.718 412.912C391.086 412.912 391.638 412.912 392.006 413.281C392.374 413.65 392.742 414.019 392.926 414.572C393.293 415.31 393.477 416.048 393.845 416.786C394.765 419.738 395.869 423.243 397.156 426.011C397.708 427.118 398.444 428.594 399.731 429.147C400.467 429.516 401.571 429.516 402.307 429.701H426.403C426.587 429.701 426.771 429.701 426.955 429.701C427.323 429.701 427.507 429.701 427.875 429.516C428.243 429.332 428.427 428.963 428.611 428.594C428.979 427.671 429.162 426.564 429.346 425.642C429.53 423.981 429.53 422.136 429.346 420.476C429.162 419.554 428.979 418.631 428.427 417.709C427.875 416.602 427.139 415.679 426.403 414.941C423.828 412.358 420.701 409.96 417.574 407.931C415.919 406.824 413.343 405.163 411.872 404.056C410.768 403.134 409.48 402.027 408.745 400.735C407.825 399.444 407.457 397.784 407.089 396.308C405.802 391.142 405.434 385.423 404.882 380.072C403.962 367.527 403.41 354.428 405.066 341.883C405.434 339.116 406.169 336.348 406.905 333.581C407.641 331.367 408.929 328.6 409.48 326.386C410.4 323.618 410.952 320.851 411.32 317.899C412.424 310.519 413.895 300.188 415.735 293.177C417.758 285.429 419.965 277.496 423.644 270.485C424.748 268.64 425.851 266.611 427.139 264.95C429.346 262.183 432.289 258.862 434.313 255.91C438.728 250.006 442.039 243.365 444.798 236.539" stroke="#F1F6FF" stroke-width="2.25" stroke-miterlimit="10" stroke-linecap="round" stroke-linejoin="round"/>
<path d="M393.293 416.602C397.156 416.048 400.835 415.126 404.514 413.465C408.376 411.805 412.055 409.406 415.182 406.639" stroke="#F1F6FF" stroke-width="2.25" stroke-miterlimit="10" stroke-linecap="round" stroke-linejoin="round"/>
<path d="M135.771 231.373C145.52 229.712 155.821 228.974 165.386 231.742C169.617 233.033 173.664 234.878 177.527 237.092C186.908 242.627 198.496 252.958 207.142 259.969C213.028 264.766 219.282 269.193 226.088 272.699C230.686 274.913 235.469 276.758 240.435 277.865C253.128 280.816 266.555 280.078 279.431 278.049C297.09 275.097 318.428 267.902 336.086 265.504C341.604 264.766 347.307 264.581 352.825 265.135C360.919 265.688 370.484 268.087 378.577 269.747" stroke="#F1F6FF" stroke-width="2.25" stroke-miterlimit="10" stroke-linecap="round" stroke-linejoin="round"/>
<path d="M420.885 275.651C424.932 275.466 429.162 275.097 433.025 273.621C435.784 272.514 438.359 270.669 440.567 268.456C443.142 265.873 446.085 261.26 448.292 258.124C449.396 256.464 450.684 254.803 452.155 253.143C453.443 251.667 455.834 249.453 457.122 248.162C459.697 245.579 462.088 242.811 463.928 239.675C467.055 234.325 469.078 228.421 471.101 222.517C472.757 217.352 476.988 203.515 479.011 198.533C479.563 197.058 480.299 195.582 480.85 194.29C482.506 190.969 485.449 188.017 487.84 185.25C490.415 182.114 493.359 178.239 495.934 174.919C500.532 168.646 524.445 135.991 528.308 130.272C531.251 125.844 534.194 121.232 536.585 116.435" stroke="#F1F6FF" stroke-width="2.25" stroke-miterlimit="10" stroke-linecap="round" stroke-linejoin="round"/>
<path d="M529.779 48.3579C527.388 47.9889 524.997 46.882 522.789 45.775C520.95 44.6681 519.11 43.5612 517.823 41.9007C517.271 41.3473 516.903 40.6093 516.535 39.8713C516.167 39.1334 515.983 38.2109 515.983 37.2885L515.799 34.8901C515.432 32.1227 514.512 29.7243 513.408 27.1415C512.121 24.1896 510.097 20.3153 508.993 17.3635C508.442 15.8875 507.89 14.4116 507.522 12.9357C507.338 11.8287 507.154 10.7218 507.522 9.61484C507.706 9.06137 508.258 8.5079 508.81 8.13891C509.545 7.58544 510.649 7.21646 511.569 7.21646C513.224 7.03197 514.696 7.03197 516.351 7.40095C519.11 7.76993 521.87 8.69239 524.445 9.98382C527.572 11.4597 530.331 13.4891 533.09 15.5185C534.562 16.6255 537.689 19.3929 539.16 20.6843C540.448 21.7912 543.023 24.0051 544.311 25.2966C546.15 27.1415 547.99 28.9864 548.909 31.5692C549.829 34.1521 549.645 36.9195 549.093 39.6868" stroke="#F1F6FF" stroke-width="2.25" stroke-miterlimit="10" stroke-linecap="round" stroke-linejoin="round"/>
<path d="M29.6363 128.796C27.613 142.079 25.7735 156.285 25.2217 169.568C24.302 191.154 24.302 214.031 25.4056 235.616C25.7735 241.151 26.1414 247.239 26.8772 252.589C27.2451 256.095 28.5327 264.212 28.5327 267.717C28.7166 270.485 28.5327 273.437 27.7969 276.204C27.0611 279.34 25.9575 283.399 25.2217 286.536C24.8538 288.749 24.4859 290.963 24.4859 293.362C24.4859 300.003 26.1414 307.199 25.9575 313.84C25.9575 315.87 25.5896 317.899 24.8538 319.744C23.7501 322.88 21.9107 326.201 20.4392 329.153C19.7034 330.813 18.9676 332.658 18.5997 334.319C18.0479 336.717 17.68 339.115 17.4961 341.514C17.3121 344.097 17.1282 348.34 16.5763 350.738C16.3924 351.107 16.3924 351.476 16.2085 351.845C15.8406 351.661 15.4727 351.476 15.2887 351.107C14.553 350.185 14.0011 348.893 13.4493 347.787C11.4259 342.621 11.242 336.533 9.95437 331.182C9.77042 330.629 9.58648 329.891 9.21859 329.337C9.03465 329.153 8.66676 329.337 8.48282 329.337C8.11493 329.522 7.74704 329.522 7.19521 329.522C6.64338 329.153 6.27549 328.599 5.90761 327.862C5.17183 326.386 4.62 324.541 4.25211 322.88C3.51634 319.375 3.51634 315.87 3.88423 312.364C4.43606 308.674 5.53972 304.985 6.64338 301.479C7.37916 299.45 9.21859 294.838 9.58648 292.808C9.58648 292.439 9.77042 292.07 9.77042 291.517C7.93099 290.963 7.5631 290.963 7.37916 290.963C7.01127 290.963 6.64338 290.963 6.27549 290.963C6.27549 290.963 6.09155 290.963 6.09155 290.779C6.09155 290.41 6.27549 289.856 6.27549 289.487C7.19521 286.72 9.58648 281.37 10.6901 278.787C12.1617 275.282 13.6332 271.592 14.553 267.717C15.4727 264.581 16.0245 261.26 16.5763 258.124C18.9676 241.335 16.2085 218.089 15.2887 200.932L14.9208 193.183C14.553 183.221 13.8172 146.323 13.6332 137.098C13.6332 129.534 13.8172 121.97 15.2887 114.59C16.9442 106.473 20.0713 98.7239 24.302 91.7133C28.3487 85.0716 33.3152 78.9834 39.2014 74.0021C45.2715 69.0209 52.4454 65.1466 60.171 63.3017C66.609 61.6413 73.4149 61.4568 80.0369 61.6413C115.722 63.4862 233.262 66.438 270.603 66.9915C277.96 66.9915 286.238 66.807 293.412 66.438C298.93 66.069 305 65.7001 310.334 64.9621C318.06 64.0396 333.511 61.0878 341.237 59.7964C350.986 58.1359 360.919 57.2135 370.852 57.5825C380.969 57.767 395.5 59.4274 405.617 60.3498L407.824 60.5343L409.112 60.7188H410.4H410.952H411.503H412.055C414.63 60.7188 417.206 60.7188 419.781 60.1653C422.724 59.6119 425.483 58.8739 428.242 57.9514C443.51 53.1547 466.687 43.7457 481.77 38.3954C487.104 36.5505 495.014 34.1521 499.98 31.5693C504.211 29.3554 508.074 26.4035 511.753 23.4517" stroke="#F1F6FF" stroke-width="2.25" stroke-miterlimit="10" stroke-linecap="round" stroke-linejoin="round"/>
</svg>
