<svg width="878" height="386" viewBox="0 0 878 386" fill="none" xmlns="http://www.w3.org/2000/svg">
<g opacity="0.2">
<path d="M876.12 2.4928H2.24414V14.1315H876.12V2.4928Z" stroke="#F1F6FF" stroke-width="1.89838" stroke-miterlimit="10" stroke-linecap="round" stroke-linejoin="round"/>
<path d="M271.717 371.852H2.24414V383.49H271.717V371.852Z" stroke="#F1F6FF" stroke-width="1.89838" stroke-miterlimit="10" stroke-linecap="round" stroke-linejoin="round"/>
<path d="M271.468 14.2378H260.078V54.1038H271.468V14.2378Z" stroke="#F1F6FF" stroke-width="1.89838" stroke-miterlimit="10" stroke-linecap="round" stroke-linejoin="round"/>
<path d="M576.158 14.2378H563.818V54.1038H576.158V14.2378Z" stroke="#F1F6FF" stroke-width="1.89838" stroke-miterlimit="10" stroke-linecap="round" stroke-linejoin="round"/>
<path d="M587.547 14.2378H576.157V383.472H587.547V14.2378Z" stroke="#F1F6FF" stroke-width="1.89838" stroke-miterlimit="10" stroke-linecap="round" stroke-linejoin="round"/>
<path d="M876.101 14.2378H864.711V383.472H876.101V14.2378Z" stroke="#F1F6FF" stroke-width="1.89838" stroke-miterlimit="10" stroke-linecap="round" stroke-linejoin="round"/>
<path d="M14.2379 14.2378H1.89844V383.472H14.2379V14.2378Z" stroke="#F1F6FF" stroke-width="1.89838" stroke-miterlimit="10" stroke-linecap="round" stroke-linejoin="round"/>
<path d="M260.078 14.2378H248.688V383.472H260.078V14.2378Z" stroke="#F1F6FF" stroke-width="1.89838" stroke-miterlimit="10" stroke-linecap="round" stroke-linejoin="round"/>
<path d="M875.756 371.852H564.099V383.49H875.756V371.852Z" stroke="#F1F6FF" stroke-width="1.89838" stroke-miterlimit="10" stroke-linecap="round" stroke-linejoin="round"/>
<path d="M576.158 54.1038H563.818V383.472H576.158V54.1038Z" stroke="#F1F6FF" stroke-width="1.89838" stroke-miterlimit="10" stroke-linecap="round" stroke-linejoin="round"/>
<path d="M271.468 54.1038H260.078V383.472H271.468V54.1038Z" stroke="#F1F6FF" stroke-width="1.89838" stroke-miterlimit="10" stroke-linecap="round" stroke-linejoin="round"/>
<path d="M563.818 383.472L563.818 372.082L271.468 372.082L271.468 383.472L563.818 383.472Z" stroke="#F1F6FF" stroke-width="1.89838" stroke-miterlimit="10" stroke-linecap="round" stroke-linejoin="round"/>
<path d="M423.339 54.1038H411.948L411.948 368.285H423.339L423.339 54.1038Z" stroke="#F1F6FF" stroke-width="1.89838" stroke-miterlimit="10" stroke-linecap="round" stroke-linejoin="round"/>
<path d="M271.717 377.059V383.472H2.24414V377.059V15.2785V8.86489V2.24435H876.12V8.86489V15.2785V377.059V383.472H564.1V377.059V54.512H417.908H271.717V377.059Z" stroke="#F1F6FF" stroke-width="2.61027" stroke-miterlimit="10" stroke-linecap="round" stroke-linejoin="round"/>
<path d="M352.028 138.266L344.983 145.311" stroke="#F1F6FF" stroke-width="1.42378" stroke-miterlimit="10" stroke-linecap="round" stroke-linejoin="round"/>
<path d="M335.735 142.546L342.78 135.501" stroke="#F1F6FF" stroke-width="1.42378" stroke-miterlimit="10" stroke-linecap="round" stroke-linejoin="round"/>
<path d="M335.064 148.622L352.699 130.988" stroke="#F1F6FF" stroke-width="1.42378" stroke-miterlimit="10" stroke-linecap="round" stroke-linejoin="round"/>
<path d="M503.898 138.266L496.854 145.311" stroke="#F1F6FF" stroke-width="1.42378" stroke-miterlimit="10" stroke-linecap="round" stroke-linejoin="round"/>
<path d="M487.605 142.546L494.65 135.501" stroke="#F1F6FF" stroke-width="1.42378" stroke-miterlimit="10" stroke-linecap="round" stroke-linejoin="round"/>
<path d="M486.934 148.622L504.569 130.988" stroke="#F1F6FF" stroke-width="1.42378" stroke-miterlimit="10" stroke-linecap="round" stroke-linejoin="round"/>
<path d="M185.106 138.266L178.062 145.311" stroke="#F1F6FF" stroke-width="1.42378" stroke-miterlimit="10" stroke-linecap="round" stroke-linejoin="round"/>
<path d="M168.812 142.546L175.857 135.501" stroke="#F1F6FF" stroke-width="1.42378" stroke-miterlimit="10" stroke-linecap="round" stroke-linejoin="round"/>
<path d="M168.142 148.622L185.777 130.988" stroke="#F1F6FF" stroke-width="1.42378" stroke-miterlimit="10" stroke-linecap="round" stroke-linejoin="round"/>
<path d="M94.0097 138.266L86.9648 145.311" stroke="#F1F6FF" stroke-width="1.42378" stroke-miterlimit="10" stroke-linecap="round" stroke-linejoin="round"/>
<path d="M77.7178 142.546L84.7627 135.501" stroke="#F1F6FF" stroke-width="1.42378" stroke-miterlimit="10" stroke-linecap="round" stroke-linejoin="round"/>
<path d="M77.0469 149.223L94.6819 131.589" stroke="#F1F6FF" stroke-width="1.42378" stroke-miterlimit="10" stroke-linecap="round" stroke-linejoin="round"/>
<path d="M215.316 58.8991H138.604V221.914H215.316V58.8991Z" stroke="#F1F6FF" stroke-width="2.13568" stroke-miterlimit="10" stroke-linecap="round" stroke-linejoin="round"/>
<path d="M220.112 54.1038H133.81V226.707H220.112V54.1038Z" stroke="#F1F6FF" stroke-width="2.13568" stroke-miterlimit="10" stroke-linecap="round" stroke-linejoin="round"/>
<path d="M124.22 58.8991H47.5078V221.914H124.22V58.8991Z" stroke="#F1F6FF" stroke-width="2.13568" stroke-miterlimit="10" stroke-linecap="round" stroke-linejoin="round"/>
<path d="M129.016 54.1038H42.7139V226.707H129.016V54.1038Z" stroke="#F1F6FF" stroke-width="2.13568" stroke-miterlimit="10" stroke-linecap="round" stroke-linejoin="round"/>
<path d="M691.999 138.266L684.954 145.311" stroke="#F1F6FF" stroke-width="1.42378" stroke-miterlimit="10" stroke-linecap="round" stroke-linejoin="round"/>
<path d="M675.706 142.546L682.751 135.501" stroke="#F1F6FF" stroke-width="1.42378" stroke-miterlimit="10" stroke-linecap="round" stroke-linejoin="round"/>
<path d="M675.036 149.223L692.671 131.589" stroke="#F1F6FF" stroke-width="1.42378" stroke-miterlimit="10" stroke-linecap="round" stroke-linejoin="round"/>
<path d="M813.305 58.8991H736.593V221.914H813.305V58.8991Z" stroke="#F1F6FF" stroke-width="2.13568" stroke-miterlimit="10" stroke-linecap="round" stroke-linejoin="round"/>
<path d="M818.1 54.1038H731.798V226.707H818.1V54.1038Z" stroke="#F1F6FF" stroke-width="2.13568" stroke-miterlimit="10" stroke-linecap="round" stroke-linejoin="round"/>
<path d="M722.209 58.8991H645.496V221.914H722.209V58.8991Z" stroke="#F1F6FF" stroke-width="2.13568" stroke-miterlimit="10" stroke-linecap="round" stroke-linejoin="round"/>
<path d="M727.004 54.1038H640.702V226.707H727.004V54.1038Z" stroke="#F1F6FF" stroke-width="2.13568" stroke-miterlimit="10" stroke-linecap="round" stroke-linejoin="round"/>
<path d="M783.095 138.266L776.05 145.311" stroke="#F1F6FF" stroke-width="1.42378" stroke-miterlimit="10" stroke-linecap="round" stroke-linejoin="round"/>
<path d="M766.803 142.546L773.848 135.501" stroke="#F1F6FF" stroke-width="1.42378" stroke-miterlimit="10" stroke-linecap="round" stroke-linejoin="round"/>
<path d="M766.132 149.223L783.767 131.589" stroke="#F1F6FF" stroke-width="1.42378" stroke-miterlimit="10" stroke-linecap="round" stroke-linejoin="round"/>
<path d="M813.305 58.8991H736.593V221.914H813.305V58.8991Z" stroke="#F1F6FF" stroke-width="2.13568" stroke-miterlimit="10" stroke-linecap="round" stroke-linejoin="round"/>
<path d="M818.1 54.1038H731.798V226.707H818.1V54.1038Z" stroke="#F1F6FF" stroke-width="2.13568" stroke-miterlimit="10" stroke-linecap="round" stroke-linejoin="round"/>
</g>
</svg>
