<svg width="51" height="50" viewBox="0 0 51 50" fill="none" xmlns="http://www.w3.org/2000/svg">
<path d="M25.6266 7.79865C23.3889 12.3829 21.2429 16.8027 19.0602 21.2226C18.8034 21.7522 19.0235 21.9531 19.3904 22.2636C23.2422 25.6241 24.5811 29.9161 24.1776 34.8839C24.1776 34.9387 24.1226 34.9935 24.0676 35.1031C23.8658 35.1213 23.6273 35.1396 23.4072 35.1396C19.9773 35.1396 16.5657 35.1579 13.1358 35.1213C12.5122 35.1213 12.2187 35.3222 11.9619 35.8519C9.8159 40.3082 7.63322 44.7464 5.48722 49.221C5.21209 49.8054 4.88193 50.0246 4.23997 49.9881C3.12111 49.9333 1.98391 49.9698 0.681641 49.9698C1.34195 48.6366 1.94723 47.3946 2.57086 46.1527C4.7352 41.8241 6.89954 37.5139 9.04554 33.1854C9.32067 32.6192 9.63248 32.4 10.2928 32.4C14.4564 32.4365 18.6017 32.4183 22.7653 32.4183C23.0954 32.4183 23.4256 32.4183 23.8658 32.4183C23.4439 26.7017 20.6926 22.7202 15.5202 20.2911C18.8768 13.5883 22.215 6.92199 25.6633 0C34.0455 16.7479 42.3177 33.3132 50.6816 49.9881C49.2326 49.9881 47.967 50.0246 46.6831 49.9698C46.4263 49.9515 46.0778 49.6959 45.9678 49.4402C41.8225 40.9475 37.6772 32.4548 33.5503 23.9621C31.0558 18.83 28.543 13.6979 26.0485 8.54747C25.9384 8.34657 25.81 8.14566 25.6266 7.79865Z" fill="white"/>
</svg>
